<?xml version="1.0" standalone="no"?>
<!DOCTYPE svg PUBLIC "-//W3C//DTD SVG 20010904//EN"
 "http://www.w3.org/TR/2001/REC-SVG-20010904/DTD/svg10.dtd">
<svg version="1.0" xmlns="http://www.w3.org/2000/svg"
 width="1024.000000pt" height="1024.000000pt" viewBox="0 0 1024.000000 1024.000000"
 preserveAspectRatio="xMidYMid meet">
<metadata>
Created by potrace 1.16, written by Peter Selinger 2001-2019
</metadata>
<g transform="translate(0.000000,1024.000000) scale(0.100000,-0.100000)"
fill="#000000" stroke="none">
<path d="M3434 8305 c-33 -7 -92 -28 -130 -46 -66 -31 -133 -96 -1452 -1413
-761 -760 -1398 -1403 -1416 -1431 -127 -194 -125 -423 5 -615 46 -68 2746
-2766 2809 -2807 278 -182 647 -79 789 220 76 161 65 365 -30 516 -15 24 -553
570 -1196 1213 l-1168 1168 1169 1169 c642 642 1180 1188 1195 1212 68 109 96
263 72 391 -26 131 -113 265 -220 337 -135 90 -276 119 -427 86z"/>
<path d="M6656 8309 c-73 -11 -205 -74 -267 -128 -139 -121 -208 -340 -165
-524 37 -158 -33 -81 1254 -1369 l1177 -1178 -1177 -1178 c-1049 -1049 -1180
-1184 -1207 -1239 -81 -162 -82 -330 -5 -488 79 -163 224 -268 408 -297 137
-21 271 13 391 98 74 52 2761 2741 2802 2804 122 186 121 416 -3 605 -18 28
-653 669 -1411 1426 l-1378 1377 -85 41 c-114 55 -205 69 -334 50z"/>
</g>
</svg>
